HIERARCHY
ROOT hip
{
  OFFSET 0 0 0
  CHANNELS 6 Xposition Yposition Zposition Zrotation Yrotation Xrotation
  JOINT abdomen
  {
    OFFSET 0 20.6881 -0.73152
    CHANNELS 3 Zrotation Xrotation Yrotation
    JOINT chest
    {
      OFFSET 0 11.7043 -0.48768
      CHANNELS 3 Zrotation Xrotation Yrotation
      JOINT neck
      {
        OFFSET 0 22.1894 -2.19456
        CHANNELS 3 Zrotation Xrotation Yrotation
        JOINT head
        {
          OFFSET -0.24384 7.07133 1.2192
          CHANNELS 3 Zrotation Xrotation Yrotation
          JOINT leftEye
          {
            OFFSET 4.14528 8.04674 8.04672
            CHANNELS 3 Zrotation Xrotation Yrotation
            End Site
            {
              OFFSET 1 0 0
            }
          }
          JOINT rightEye
          {
            OFFSET -3.6576 8.04674 8.04672
            CHANNELS 3 Zrotation Xrotation Yrotation
            End Site
            {
              OFFSET 1 0 0
            }
          }
        }
      }
      JOINT rCollar
      {
        OFFSET -2.68224 19.2634 -4.8768
        CHANNELS 3 Zrotation Xrotation Yrotation
        JOINT rShldr
        {
          OFFSET -8.77824 -1.95073 1.46304
          CHANNELS 3 Zrotation Xrotation Yrotation
          JOINT rForeArm
          {
            OFFSET -28.1742 -1.7115 0.48768
            CHANNELS 3 Zrotation Xrotation Yrotation
            JOINT rHand
            {
              OFFSET -22.5879 0.773209 7.07136
              CHANNELS 3 Zrotation Xrotation Yrotation
              JOINT rThumb1
              {
                OFFSET -1.2192 -0.487915 3.41376
                CHANNELS 3 Zrotation Xrotation Yrotation
                JOINT rThumb2
                {
                  OFFSET -3.37035 -0.52449 3.41376
                  CHANNELS 3 Zrotation Xrotation Yrotation
                  End Site
                  {
                    OFFSET -1.78271 -1.18214 1.43049
                  }
                }
              }
              JOINT rIndex1
              {
                OFFSET -7.75947 0.938293 5.60832
                CHANNELS 3 Zrotation Xrotation Yrotation
                JOINT rIndex2
                {
                  OFFSET -2.54057 -0.884171 1.56538
                  CHANNELS 3 Zrotation Xrotation Yrotation
                  End Site
                  {
                    OFFSET -1.62519 -0.234802 1.16502
                  }
                }
              }
              JOINT rMid1
              {
                OFFSET -8.24714 1.18213 3.41376
                CHANNELS 3 Zrotation Xrotation Yrotation
                JOINT rMid2
                {
                  OFFSET -3.10165 -0.590103 1.0647
                  CHANNELS 3 Zrotation Xrotation Yrotation
                  End Site
                  {
                    OFFSET -2.48547 -0.328903 0.83742
                  }
                }
              }
              JOINT rRing1
              {
                OFFSET -8.82822 0.546677 1.51678
                CHANNELS 3 Zrotation Xrotation Yrotation
                JOINT rRing2
                {
                  OFFSET -2.60934 -0.819778 -0.0198488
                  CHANNELS 3 Zrotation Xrotation Yrotation
                  End Site
                  {
                    OFFSET -2.33842 -0.294052 0.168128
                  }
                }
              }
              JOINT rPinky1
              {
                OFFSET -8.27202 -0.0477905 -0.4584
                CHANNELS 3 Zrotation Xrotation Yrotation
                JOINT rPinky2
                {
                  OFFSET -1.82734 -0.647385 -0.700984
                  CHANNELS 3 Zrotation Xrotation Yrotation
                  End Site
                  {
                    OFFSET -1.69225 -0.51767 -0.607171
                  }
                }
              }
            }
          }
        }
      }
      JOINT lCollar
      {
        OFFSET 2.68224 19.2634 -4.8768
        CHANNELS 3 Zrotation Xrotation Yrotation
        JOINT lShldr
        {
          OFFSET 8.77824 -1.95073 1.46304
          CHANNELS 3 Zrotation Xrotation Yrotation
          JOINT lForeArm
          {
            OFFSET 28.1742 -1.7115 0.48768
            CHANNELS 3 Zrotation Xrotation Yrotation
            JOINT lHand
            {
              OFFSET 22.5879 0.773209 7.07136
              CHANNELS 3 Zrotation Xrotation Yrotation
              JOINT lThumb1
              {
                OFFSET 1.2192 -0.487915 3.41376
                CHANNELS 3 Zrotation Xrotation Yrotation
                JOINT lThumb2
                {
                  OFFSET 3.37035 -0.52449 3.41376
                  CHANNELS 3 Zrotation Xrotation Yrotation
                  End Site
                  {
                    OFFSET 1.78271 -1.18214 1.43049
                  }
                }
              }
              JOINT lIndex1
              {
                OFFSET 7.75947 0.938293 5.60832
                CHANNELS 3 Zrotation Xrotation Yrotation
                JOINT lIndex2
                {
                  OFFSET 2.54057 -0.884171 1.56538
                  CHANNELS 3 Zrotation Xrotation Yrotation
                  End Site
                  {
                    OFFSET 1.62519 -0.234802 1.16502
                  }
                }
              }
              JOINT lMid1
              {
                OFFSET 8.24714 1.18213 3.41376
                CHANNELS 3 Zrotation Xrotation Yrotation
                JOINT lMid2
                {
                  OFFSET 3.10165 -0.590103 1.0647
                  CHANNELS 3 Zrotation Xrotation Yrotation
                  End Site
                  {
                    OFFSET 2.48547 -0.328903 0.83742
                  }
                }
              }
              JOINT lRing1
              {
                OFFSET 8.82822 0.546677 1.51678
                CHANNELS 3 Zrotation Xrotation Yrotation
                JOINT lRing2
                {
                  OFFSET 2.60934 -0.819778 -0.0198488
                  CHANNELS 3 Zrotation Xrotation Yrotation
                  End Site
                  {
                    OFFSET 2.33842 -0.294052 0.168128
                  }
                }
              }
              JOINT lPinky1
              {
                OFFSET 8.27202 -0.0477905 -0.4584
                CHANNELS 3 Zrotation Xrotation Yrotation
                JOINT lPinky2
                {
                  OFFSET 1.82734 -0.647385 -0.700984
                  CHANNELS 3 Zrotation Xrotation Yrotation
                  End Site
                  {
                    OFFSET 1.69225 -0.51767 -0.607171
                  }
                }
              }
            }
          }
        }
      }
    }
  }
  JOINT rButtock
  {
    OFFSET -8.77824 4.35084 1.2192
    CHANNELS 3 Zrotation Xrotation Yrotation
    JOINT rThigh
    {
      OFFSET 0 -1.70687 -2.19456
      CHANNELS 3 Zrotation Xrotation Yrotation
      JOINT rShin
      {
        OFFSET 0 -36.8199 0.73152
        CHANNELS 3 Zrotation Xrotation Yrotation
        JOINT rFoot
        {
          OFFSET 0.73152 -45.1104 -5.12064
          CHANNELS 3 Zrotation Xrotation Yrotation
          End Site
          {
            OFFSET -1.1221 -3.69964 12.103
          }
        }
      }
    }
  }
  JOINT lButtock
  {
    OFFSET 8.77824 4.35084 1.2192
    CHANNELS 3 Zrotation Xrotation Yrotation
    JOINT lThigh
    {
      OFFSET 0 -1.70687 -2.19456
      CHANNELS 3 Zrotation Xrotation Yrotation
      JOINT lShin
      {
        OFFSET 0 -36.8199 0.73152
        CHANNELS 3 Zrotation Xrotation Yrotation
        JOINT lFoot
        {
          OFFSET -0.73152 -45.1104 -5.12064
          CHANNELS 3 Zrotation Xrotation Yrotation
          End Site
          {
            OFFSET 1.1221 -3.69964 12.103
          }
        }
      }
    }
  }
}
MOTION
Frames:	8
Frame Time:	0.00833333
260.312600 50.593800 -41.626700 -88.613004 75.404256 -65.569737 13.987051 -2.657973 -93.362926 2.720800 2.489914 93.327987 -10.654339 27.629151 -121.563498 30.575373 30.215570 130.256515 -9.148665 -2.916207 -18.130647 -0.089866 -3.140730 -9.444588 9.470404 -27.218706 -5.640782 -117.799868 -14.206620 -123.675445 -170.311418 -38.783521 -73.773585 -13.302960 -30.601178 -6.666294 -177.273212 -18.825189 90.016250 -154.993405 2.045262 86.511023 7.020852 -19.590099 1.497902 -171.196050 -39.287495 109.405820 -174.889922 -60.723024 154.923270 -4.921638 39.999919 12.071620 -138.203986 3.556435 -173.312531 -154.496074 -13.449540 -180.064933 -23.044861 -33.120176 -37.620138 -144.172259 4.919038 -154.104336 3.435065 0.325458 1.954613 -82.911092 -15.229394 -76.417075 4.266427 6.540851 -22.127033 24.763926 74.131409 -23.814459 176.360004 -5.164103 -87.557427 3.597416 -56.966260 -2.041802 62.894280 40.247808 -53.319459 -53.070145 -42.881384 -10.266408 -151.462344 -67.981134 -112.030355 -18.255100 -30.749030 0.644550 141.010297 -0.984134 -183.938474 -24.749925 27.098916 6.420966 -1.643646 12.053480 -0.027190 5.177333 -9.644479 8.070440 51.314105 22.203095 37.412268 -47.298111 36.133127 -145.461081 -37.421956 -7.907777 -84.822650 -27.711324 48.795322 155.180867 7.457950 0.339177 -1.589411 103.001454 -52.497564 -6.795201 -108.413105 -18.107550 -43.919652 5.796952 20.691210 128.470438
261.270900 50.817500 -41.951000 -81.805875 73.305925 -71.446778 7.578583 -0.203631 81.175623 0.493488 -7.450954 -80.141679 10.081389 33.980831 151.083237 -26.813310 45.385950 -126.120058 -13.129651 -0.941383 -16.677085 3.345961 0.573030 -10.406880 7.934518 -65.622580 -6.257741 -101.495520 -31.649506 -81.681175 -91.515612 31.948081 -77.322783 -168.561267 -55.407458 163.846573 -180.367294 -15.844512 91.139104 -123.112204 27.276408 61.142011 -139.752238 12.175474 108.681683 179.595385 -26.778607 115.604201 -0.412884 28.240727 5.728158 27.264030 -49.397443 7.752099 -140.667133 -4.844636 -172.950409 -156.068192 7.051051 173.931695 -98.642377 -38.789136 -97.471206 -132.128206 36.915932 -155.687961 153.101100 2.406203 -160.717500 -144.097506 33.505594 116.719570 -179.547848 9.055498 -125.603402 -110.903371 -58.853728 -113.351304 -4.390340 -9.319125 -3.296760 40.663370 23.163429 -39.274447 119.715106 20.992160 -98.742622 168.941859 -19.989864 -117.116316 -4.854746 -4.945283 -8.934810 138.531100 56.555951 -118.725966 133.569720 -1.233910 -174.334210 124.784699 -52.474118 160.993404 4.058977 -0.195923 3.447032 -2.733829 -7.611037 -4.304443 -148.130116 75.844119 -24.818566 81.732147 76.089656 -57.611515 -30.976498 -36.302978 -15.212665 -21.504040 84.930360 121.453366 173.484089 75.690458 7.426097 -139.096257 -16.754910 153.407983 123.038440 -57.087709 9.893889 -47.675392 33.138655 -47.063534
262.300800 51.063500 -42.317700 -82.118417 73.765082 -72.839438 10.952880 -0.542146 -104.913535 6.020671 5.488044 105.926696 -8.918996 13.430780 -41.139752 27.246659 -21.874167 53.652797 -9.602511 3.981319 -20.109617 1.375846 1.461672 -9.754309 -152.767456 2.220917 154.325482 -157.406525 35.465894 100.377034 -54.544345 28.867582 157.706386 -22.596130 -80.013934 -42.560561 -180.760848 -16.195367 94.559860 -97.731367 27.746187 38.731810 -135.281178 18.145161 106.963351 -169.478409 -3.340073 110.363395 -0.694678 14.037759 -0.622232 -159.097347 15.816094 134.717443 7.199150 -4.098893 -4.917290 -156.262247 -18.101172 179.931864 -115.882808 -22.600851 -112.875816 -14.943640 -53.865161 -32.014818 15.010995 38.889915 -8.217391 -136.973003 -0.281351 -132.400113 -177.245631 -38.989719 -122.661460 -114.355698 -55.670110 -114.219952 -2.570387 -4.034654 -8.662358 -9.149126 -12.785691 10.591228 55.715037 32.436903 -40.333989 166.979626 -9.654266 -101.838388 -77.333581 -79.649435 -50.510419 169.378595 -5.563083 -143.862899 -10.845709 0.559238 -1.330765 127.843391 76.220238 -126.440670 1.975902 -10.402094 8.083436 -3.359746 -4.763735 -2.516024 171.088261 78.605235 -1.351282 84.375932 90.164608 -175.315970 28.393500 -4.540876 -79.698997 -151.141085 -2.481074 53.584443 -148.693502 73.583911 -22.677574 -151.383168 -9.936935 145.689177 115.763650 -36.902448 175.876798 113.565392 -40.200229 -173.017887
263.398600 51.334900 -42.726200 -83.305471 75.054126 -66.457532 8.363885 2.583510 -57.070022 4.523266 -0.657462 65.848378 12.616480 21.675105 67.636747 -32.987392 -8.580419 -61.933932 -6.528652 -2.090853 -18.062047 -3.761214 3.490884 -8.004168 -140.507075 32.509526 151.347810 76.400866 -15.928607 83.715884 -112.538806 -11.520791 34.792198 -173.005830 -52.399620 158.726768 -160.309299 11.512218 90.087545 -24.594457 -28.841638 5.111949 -0.288587 -11.086657 -7.050678 -115.596683 25.727976 104.454991 21.094759 -80.684074 -8.198239 -12.058662 42.071981 21.187810 4.599444 8.272181 -0.845445 -157.323756 -3.389255 171.468674 19.330542 28.366829 -9.173439 -104.278879 -50.667956 -98.783196 146.732720 22.918136 -156.287173 71.214774 -35.290378 60.791791 143.726865 -52.602790 140.717137 2.756110 49.763809 -17.887075 -1.159346 0.784882 -1.910703 -37.420104 -56.810169 19.078265 -20.652216 -35.522509 -5.503691 -60.570932 -45.525642 -9.882247 -0.276438 -1.596207 -2.650579 179.394219 -46.906372 -151.623472 -5.821498 6.681820 -1.730164 10.146273 0.864323 2.478864 114.531299 -38.398055 113.798892 161.695732 52.060162 135.968282 4.459956 -0.608486 7.112357 -8.904047 15.175854 182.826078 -8.774133 -34.238966 -154.600224 -65.983132 61.384736 -7.373875 -179.395878 83.569224 4.161230 -141.253563 -15.849923 125.632932 112.580046 -16.351577 167.803974 -38.314590 71.096732 128.937983
264.559000 51.634900 -43.175000 -80.746669 78.993256 -67.108196 3.554173 -3.825366 41.401581 2.607749 -4.049145 -41.922175 -12.751957 26.962286 -99.985309 42.615233 21.498359 106.823532 -12.039122 -2.524851 -19.408277 -8.671405 -3.220632 -10.031241 3.547661 3.170882 7.092180 56.835022 -13.818258 -28.276566 167.653665 -27.498441 37.822462 -147.572653 28.801798 130.079161 0.149048 -6.418324 -7.813218 -166.693631 -70.895925 110.451282 32.584865 -54.923454 6.336533 28.840594 -22.598163 -15.487388 -3.120925 7.770607 -1.702865 9.616324 -10.292067 10.998232 -0.187328 15.927737 1.289009 -147.657510 -42.534119 -176.043173 23.486636 31.559842 -7.046268 12.181380 60.089450 6.855935 32.056194 61.462086 -34.008218 62.151103 5.599287 -22.333085 -11.124487 2.206692 53.971580 -99.406664 -64.709914 -100.770823 -12.975294 -18.764692 -5.481049 -14.643373 -25.652104 18.948380 151.396181 -17.524562 -117.370423 15.750566 27.222581 2.353660 158.142780 -5.523529 -132.482310 5.236194 21.762956 -8.363676 135.581469 -5.592397 -179.806234 -33.103507 6.392702 13.273904 -40.563775 74.398746 12.032782 164.617681 70.777947 158.511564 171.985418 82.616403 4.587702 119.913003 83.288612 174.624046 26.772933 -26.886305 -46.314717 -114.026318 -61.143319 160.392329 110.564983 65.601034 58.963207 -129.460231 -23.783527 78.033009 100.883870 0.174715 -90.210197 24.522765 -10.796793 5.843039
265.775100 51.966200 -43.661400 -80.702674 78.001494 -65.285180 7.064585 1.150708 72.921700 -1.665360 -6.444375 -75.163433 -10.250582 19.013533 -73.445194 40.424634 5.356118 95.606340 -16.972620 4.564925 -21.490574 -5.492150 5.030414 -14.538520 6.457632 -70.865146 -17.749088 -65.915154 -31.043062 -61.058616 1.575986 -0.081913 -141.496103 -149.078894 23.347826 135.017613 23.022209 -20.067691 -2.147656 -42.374023 28.338114 30.424537 -151.459436 -5.146828 121.788287 -179.331695 -10.306775 115.192927 -162.994379 -28.751779 150.717567 -173.176266 -58.351953 156.190258 -140.021488 33.854942 172.792263 -157.899767 -31.679508 177.052503 -149.881322 28.968849 -135.748408 27.086668 53.806024 1.466819 157.388916 -41.885096 -169.973018 159.118193 48.485652 130.931523 40.225077 48.276033 -3.558288 -19.063977 -27.791121 -22.394835 167.223950 4.866298 -81.764575 160.892675 2.909723 -86.181985 95.654017 36.483371 -78.269915 -13.533326 -16.038502 -0.407703 -5.982687 -26.036287 -6.009785 173.582102 -28.669968 -146.991748 136.744029 6.716642 -182.032892 -36.562204 47.591559 6.248965 129.075607 -21.122402 117.374979 -3.511295 3.263605 14.409510 -3.812257 -4.550713 -1.062778 -12.119047 7.632006 3.343223 2.938062 34.089476 -68.414923 -78.828758 -35.362782 19.284809 -150.399403 82.776014 -21.242141 -153.957948 -7.216078 6.538690 -147.224419 73.068051 68.391482 154.672623 -46.233771 -107.462226
267.038400 52.331700 -44.182200 -86.620089 80.160658 -66.972615 9.538142 -5.729564 45.464992 -0.946878 -9.430991 -44.848619 -6.093587 32.290699 -143.534539 33.890959 44.593548 140.677102 -8.651452 -0.373928 -23.421754 -8.930343 3.992239 -14.034838 -152.881921 -11.489181 167.564142 50.204717 -56.284262 102.816560 91.604991 68.646990 132.268559 -134.275482 36.798407 126.800109 7.598220 -4.230069 -7.390715 43.112783 -70.146632 -23.955499 0.471329 -21.177611 1.396055 -143.587352 -23.650316 123.134998 -164.881622 -24.526850 150.384058 178.644714 -82.240230 148.473601 -1.528228 14.939528 -2.077350 -143.245402 -25.304497 -181.485106 169.476644 67.582497 -120.021622 13.018841 31.533524 0.967297 158.633736 -3.595206 -160.666855 64.282516 -27.143628 77.776534 -6.788857 5.225260 52.866364 -89.586724 -57.431142 -87.883114 -177.063222 -11.716177 -86.554968 -144.572695 -56.061256 -108.456679 -80.014167 -66.965189 -35.260110 1.306486 39.604935 -0.362826 -12.363635 -30.862782 -6.976600 4.043801 -14.987721 3.929382 130.733766 -1.414243 -178.299863 129.741263 -41.689207 167.054625 1.598739 2.127262 1.531380 51.010254 -67.260312 57.445353 114.365338 76.002032 46.174712 -120.296893 80.157776 -159.667353 -34.209313 -23.299742 67.969678 -126.385369 -26.251755 13.741352 30.177146 -0.838777 19.258228 48.488209 -73.953000 -166.458647 121.228851 -29.192869 95.771789 -73.009806 -2.047378 -166.847784
268.339000 52.733600 -44.732900 -87.984211 79.125470 -65.246797 3.867738 -7.892713 112.932565 -0.616714 -2.168429 -107.993680 6.408923 17.482669 42.601409 -25.004556 -18.552785 -35.595078 -10.733633 5.882876 -35.358811 -13.571762 6.049537 -21.172962 -154.427039 -57.622593 177.383813 132.889644 -22.401387 -172.068950 -5.850860 -38.412145 95.222335 -18.406618 -40.832030 -10.410448 -1.425244 2.331715 -7.341046 -121.450035 -32.478982 117.550820 99.450651 -74.575299 51.464758 -3.321225 44.375789 -8.156720 8.469294 -16.317038 -4.826327 13.323786 6.241000 7.353177 -2.497787 -1.921890 -4.982268 -153.364586 39.618282 181.068640 26.864920 46.690034 -7.118069 -136.849278 -14.830846 -128.515362 143.136809 37.663671 -143.989972 52.081473 -12.374200 31.612503 175.299431 -8.269484 158.185076 70.863883 84.170723 -75.604246 1.791388 -3.834220 0.078381 124.385447 -42.257079 -115.582445 11.649007 8.121092 -6.701389 -171.282665 -36.007909 -93.107181 152.560900 11.835929 -136.507377 -156.201057 -66.737405 -112.817973 135.173511 -1.726375 -177.298207 128.486575 -21.234484 174.892204 167.284025 37.229802 136.677040 173.056453 34.489040 140.678099 174.205899 77.812324 1.534702 141.536422 84.013613 118.394650 52.732111 -2.471507 62.220326 93.647410 11.441690 -174.049245 -0.989304 -8.716782 -8.094864 91.582138 -51.770692 -0.201840 -94.800366 7.028470 68.926340 -1.789357 -19.545550 31.846763
